<svg viewBox="12.35 7.94 122.2 88.77" xmlns="http://www.w3.org/2000/svg">
  <g fill="#b31474">
    <path d="m 14.860051,68.350409 q -3.525439,-7.297594 -1.904283,-14.478802 1.621163,-7.181206 6.833119,-13.659063 5.211956,-6.477838 13.210228,-12.092936 7.998282,-5.615085 17.120033,-9.88786 9.12175,-4.272767 18.669533,-6.936403 9.547784,-2.6636378 17.912283,-3.1848795 8.364498,-0.5212407 14.741346,1.2057233 6.37682,1.7269542 9.15647,6.3425852 0.85511,1.502677 0.42354,3.00306 -0.43158,1.50039 -1.72086,2.945643 -1.28924,1.445234 -3.22151,2.674887 -1.93224,1.229654 -4.02484,2.190952 -2.092607,0.961302 -4.077231,1.493895 -1.98461,0.532595 -3.378533,0.530115 -2.358948,-0.0042 -3.858766,-0.757447 -1.499808,-0.753244 -2.248852,-1.612378 -0.749056,-0.859135 -0.80123,-1.663426 -0.05213,-0.804281 0.484326,-1.017768 1.716362,-0.425855 4.988151,-1.22421 3.271788,-0.798365 6.383413,-1.972314 3.111632,-1.173929 5.098052,-2.72517 1.98644,-1.551228 1.02523,-3.697439 -0.74792,-1.502494 -3.74954,-1.883119 -3.001629,-0.380638 -6.755176,-0.01202 -3.753539,0.368602 -7.668775,1.219442 -3.915233,0.850839 -6.597383,1.70386 -6.54435,2.025634 -14.32397,5.282151 -7.779622,3.256527 -15.400037,7.424743 -7.620415,4.168226 -14.545009,8.981033 -6.924595,4.812807 -11.81249,9.950927 -4.887893,5.138104 -7.095261,10.3346 -2.207367,5.196498 -0.500555,10.131896 0.960254,2.682344 3.370336,4.080562 2.410072,1.398216 5.679676,1.832933 3.26962,0.434522 7.130449,0.0127 3.860865,-0.422023 7.562123,-1.541301 3.701268,-1.119285 7.0282,-2.775349 3.326932,-1.656073 5.689315,-3.581927 1.935767,-3.213301 4.139506,-6.372524 2.203742,-3.159222 4.460239,-5.835841 2.256497,-2.676611 4.512137,-4.870714 2.255629,-2.194104 4.295192,-3.477178 1.073591,-0.74866 2.46779,-0.907021 1.394208,-0.15835 2.465987,0.111647 1.07177,0.269982 1.660549,0.807151 0.588781,0.537178 0.266343,0.965499 -4.729347,6.425091 -8.760678,12.261691 -4.031332,5.836609 -7.526736,11.781383 -3.495402,5.944776 -6.616279,12.319129 -3.120875,6.374342 -6.136534,13.874737 -0.323011,0.75 -1.07302,0.42699 -0.75,-0.323007 -1.498758,-1.34298 -0.748761,-1.019973 -1.282025,-2.629308 -0.533255,-1.609325 -0.422599,-3.53917 0.335034,-7.505181 3.993282,-14.575532 -4.077983,1.922802 -9.11908,2.771626 -5.041096,0.848827 -9.918876,0.304031 -4.877786,-0.54482 -8.841283,-2.696377 -3.963507,-2.151558 -5.886686,-6.015087 z" />
    <path d="m 63.636661,40.544002 q 5.864106,0 12.292067,-0.11277 6.42796,-0.11277 10.93881,-0.563856 1.804341,-0.225543 2.142655,0.563856 0.338313,0.789398 -0.338314,2.029882 -0.676629,1.240484 -2.480968,2.368196 -1.80434,1.127712 -4.059765,1.353255 -7.217359,1.353255 -14.43472,1.240483 -7.217359,-0.11277 -11.051581,-0.11277 -1.804341,0 -1.804341,-1.014941 0,-1.014941 1.127712,-2.368195 1.127714,-1.353256 3.157595,-2.368197 2.029884,-1.014941 4.51085,-1.014941 z" />
    <path d="m 45.997652,81.311915 c 1.878529,-4.538368 3.99068,-9.151204 6.331859,-13.834806 2.34056,-4.681119 4.912505,-9.133829 7.715714,-13.356889 2.801719,-4.218094 5.869209,-7.642967 9.205328,-10.268415 1.205473,-0.921075 2.41144,-1.365484 3.618276,-1.330723 1.206465,0.03848 2.270796,0.266888 3.192123,0.692674 0.921327,0.425776 1.596868,0.958313 2.023023,1.595124 0.425783,0.639297 0.425783,1.135837 0,1.4921 -1.631131,1.488374 -3.317623,3.208882 -5.055011,5.159042 -1.739376,1.952635 -3.458391,4.064161 -5.162263,6.333345 -1.702509,2.270423 -3.282368,4.666221 -4.735612,7.18243 -1.454737,2.519935 -2.713462,5.056007 -3.777792,7.609453 2.837098,-1.703123 5.922961,-3.439769 9.259081,-5.213654 3.333758,-1.773886 6.721269,-3.52791 10.164019,-5.269519 3.440396,-1.736638 6.862411,-3.439772 10.267802,-5.106896 3.406496,-1.667125 6.599489,-3.207636 9.579222,-4.628983 5.746689,-2.837712 11.494119,-5.835569 17.239089,-8.993554 5.74741,-3.155498 11.60036,-6.047833 17.56132,-8.673281 0.56606,-0.283036 0.90369,-0.0161 1.0092,0.798177 0.10796,0.81681 -0.0161,1.880646 -0.37116,3.193983 -0.35626,1.312112 -0.94094,2.712347 -1.75526,4.203207 -0.81804,1.489613 -1.8645,2.766961 -3.14062,3.830795 -1.77386,1.490852 -4.15105,2.980473 -7.13153,4.470086 -2.97797,1.489612 -6.34948,3.049986 -10.10827,4.682359 -3.76252,1.63361 -7.80559,3.299497 -12.13168,5.001382 -4.328705,1.703133 -8.708918,3.495633 -13.143261,5.375033 -4.434456,1.879397 -8.800027,3.849418 -13.089872,5.906326 -4.294315,2.05815 -8.285119,4.221812 -11.972786,6.490996 2.554069,-0.779562 5.746565,-1.045212 9.577856,-0.796939 3.830176,0.249503 7.9291,0.832939 12.290199,1.754015 4.365562,0.923561 8.850927,2.075533 13.463271,3.459632 4.611963,1.38411 8.993193,2.804208 13.141773,4.257819 4.1523,1.45486 7.89372,2.856336 11.22797,4.203193 3.33674,1.348118 5.92495,2.483944 7.77083,3.405021 0.49654,0.284268 0.8677,0.585915 1.11721,0.904939 0.24829,0.319023 0.26441,0.551159 0.0546,0.691442 -0.21474,0.143985 -0.71128,0.158887 -1.49085,0.05331 -0.7833,-0.105517 -1.95389,-0.477924 -3.51302,-1.117209 -3.05122,-1.205359 -6.36934,-2.430559 -9.94814,-3.671912 -3.58627,-1.240101 -7.32768,-2.411931 -11.22798,-3.510524 -3.90528,-1.101069 -7.860708,-2.092908 -11.866901,-2.981718 -4.010671,-0.885077 -7.928108,-1.57775 -11.760271,-2.075525 -3.830794,-0.495298 -7.486933,-0.75971 -10.961213,-0.798188 -3.477258,-0.03477 -6.635369,0.232128 -9.47259,0.798188 -0.70943,0.143989 -1.579242,0 -2.606331,-0.424548 -1.029944,-0.425776 -1.863511,-0.921076 -2.501561,-1.49085 -0.355894,0.783287 -0.78118,1.686986 -1.276353,2.714821 -0.498401,1.027838 -1.02982,2.039536 -1.59724,3.032608 -0.567792,0.994327 -1.135087,1.898028 -1.702508,2.71359 -0.568288,0.815562 -1.064329,1.401477 -1.489986,1.756494 -0.638179,0.568537 -1.436362,1.029082 -2.394558,1.382862" />
  </g>
</svg>
